<svg width="120" height="76" viewBox="0 0 120 76" fill="none" xmlns="http://www.w3.org/2000/svg">
<path d="M0 64.6626C0 68.1925 2.42671 70.5804 5.58357 70.5804C7.7311 70.5804 9.25584 69.4799 9.96452 68.2548V70.6427C9.96452 73.0721 8.39683 74.3595 6.31373 74.3595C4.38095 74.3595 2.98506 73.4251 2.55556 72.0547H0.622783C1.00934 74.4841 3.22129 75.9999 6.31373 75.9999C9.77125 75.9999 11.9402 73.7781 11.9402 70.6427V59.0147H9.96452V61.0912C9.27731 59.8661 7.7311 58.8279 5.58357 58.8279C2.42671 58.8279 0 61.1119 0 64.6626ZM9.96452 64.6834C9.96452 67.362 8.11765 68.9193 5.97012 68.9193C3.8226 68.9193 1.9972 67.3412 1.9972 64.6626C1.9972 61.984 3.8226 60.4682 5.97012 60.4682C8.11765 60.4682 9.96452 62.0463 9.96452 64.6834Z" fill="white"/>
<path d="M26.4099 64.6834C26.4099 61.0912 23.8114 58.8279 20.4612 58.8279C17.1326 58.8279 14.5126 61.0912 14.5126 64.6834C14.5126 68.2964 17.0467 70.5804 20.3753 70.5804C23.7255 70.5804 26.4099 68.2964 26.4099 64.6834ZM16.5098 64.6834C16.5098 61.8179 18.3781 60.4682 20.4398 60.4682C22.4584 60.4682 24.4127 61.8179 24.4127 64.6834C24.4127 67.5696 22.4155 68.9193 20.3753 68.9193C18.3352 68.9193 16.5098 67.5696 16.5098 64.6834Z" fill="white"/>
<path d="M30.1032 70.3937H32.5729V60.8837H34.7634V58.9526H32.5729V58.1428C32.5729 56.8346 33.0883 56.3363 34.5916 56.3363V54.3637C31.4991 54.3637 30.1032 55.5057 30.1032 58.1428V58.9526H28.7073V60.8837H30.1032V70.3937Z" fill="white"/>
<path d="M36.933 70.3937H39.3812V58.9526H36.933V70.3937ZM38.1786 57.4368C39.0376 57.4368 39.7248 56.7723 39.7248 55.921C39.7248 55.0697 39.0376 54.4052 38.1786 54.4052C37.2981 54.4052 36.6109 55.0697 36.6109 55.921C36.6109 56.7723 37.2981 57.4368 38.1786 57.4368Z" fill="white"/>
<path d="M50.9923 70.3937H53.419V63.6453C53.419 60.4476 51.3359 58.7657 48.5656 58.7657C47.1482 58.7657 45.8382 59.3264 45.0436 60.2607V58.9526H42.5955V70.3937H45.0436V63.9983C45.0436 61.9011 46.2248 60.8214 48.0287 60.8214C49.8111 60.8214 50.9923 61.9011 50.9923 63.9983V70.3937Z" fill="white"/>
<path d="M55.7257 64.6212C55.7257 68.1512 58.1954 70.5806 61.2663 70.5806C63.2421 70.5806 64.6594 69.667 65.4111 68.691V70.3937H67.8807V58.9526H65.4111V60.6137C64.6809 59.6793 63.3065 58.7657 61.3093 58.7657C58.1954 58.7657 55.7257 61.0913 55.7257 64.6212ZM65.4111 64.6628C65.4111 67.1337 63.6716 68.5249 61.8247 68.5249C59.9993 68.5249 58.2383 67.0922 58.2383 64.6212C58.2383 62.1503 59.9993 60.8214 61.8247 60.8214C63.6716 60.8214 65.4111 62.2126 65.4111 64.6628Z" fill="white"/>
<path d="M79.4931 70.3937H81.9198V63.6453C81.9198 60.4476 79.8367 58.7657 77.0664 58.7657C75.6491 58.7657 74.3391 59.3264 73.5445 60.2607V58.9526H71.0963V70.3937H73.5445V63.9983C73.5445 61.9011 74.7256 60.8214 76.5296 60.8214C78.312 60.8214 79.4931 61.9011 79.4931 63.9983V70.3937Z" fill="white"/>
<path d="M84.2266 64.6628C84.2266 68.255 86.6318 70.5806 90.0249 70.5806C92.9241 70.5806 94.8139 69.0233 95.4796 66.7807H92.8382C92.3872 67.9643 91.4852 68.5872 90.0249 68.5872C88.0492 68.5872 86.7392 67.1752 86.7392 64.6628C86.7392 62.1711 88.0492 60.7591 90.0249 60.7591C91.4852 60.7591 92.4301 61.4651 92.8382 62.5656H95.4796C94.8139 60.1569 92.9241 58.7657 90.0249 58.7657C86.6318 58.7657 84.2266 61.0913 84.2266 64.6628Z" fill="white"/>
<path d="M102.902 60.7591C104.727 60.7591 106.166 61.8804 106.209 63.6453H99.6589C99.9166 61.8388 101.248 60.7591 102.902 60.7591ZM108.442 66.9884H105.801C105.35 67.8812 104.512 68.5872 103.009 68.5872C101.205 68.5872 99.8092 67.4452 99.6374 65.5556H108.679C108.743 65.1611 108.764 64.7874 108.764 64.3928C108.764 61.029 106.381 58.7657 103.009 58.7657C99.5086 58.7657 97.1034 61.0705 97.1034 64.6628C97.1034 68.255 99.616 70.5806 103.009 70.5806C105.908 70.5806 107.777 68.9817 108.442 66.9884Z" fill="white"/>
<path d="M120 67.196C119.871 63.0639 113.192 64.3513 113.192 62.0465C113.192 61.2782 113.88 60.7591 115.19 60.7591C116.521 60.7591 117.316 61.4443 117.401 62.441H119.85C119.721 60.1569 117.96 58.7657 115.275 58.7657C112.484 58.7657 110.723 60.24 110.723 62.0672C110.723 66.2616 117.595 64.9742 117.595 67.2168C117.595 68.0058 116.843 68.5872 115.426 68.5872C114.073 68.5872 113.149 67.8189 113.063 66.8845H110.529C110.637 68.961 112.634 70.5806 115.469 70.5806C118.261 70.5806 120 69.1271 120 67.196Z" fill="white"/>
<path d="M65.3259 5.4169C60.5845 5.4169 56.736 9.26544 56.736 14.0067C56.736 18.748 60.5845 22.5966 65.3259 22.5966C70.0672 22.5966 73.9157 18.748 73.9157 14.0067C73.9278 9.26544 70.0792 5.4169 65.3259 5.4169ZM67.7991 17.4089C67.4251 17.8673 66.9304 18.169 66.3634 18.3258C66.11 18.3982 66.0015 18.5188 66.0135 18.7842C66.0256 19.0376 66.0135 19.2909 66.0135 19.5443C66.0135 19.7735 65.8929 19.8942 65.6757 19.8942C65.3982 19.9062 65.1328 19.9062 64.8553 19.8942C64.6141 19.8942 64.5055 19.7494 64.5055 19.5202C64.5055 19.3392 64.5055 19.1462 64.5055 18.9652C64.5055 18.555 64.4934 18.543 64.0953 18.4826C63.5886 18.3982 63.0939 18.2896 62.6355 18.0604C62.2736 17.8794 62.2374 17.795 62.3459 17.4089C62.4183 17.1314 62.5028 16.8419 62.5872 16.5644C62.6838 16.2387 62.7803 16.2025 63.0698 16.3593C63.5765 16.6247 64.1194 16.7695 64.6864 16.8419C65.0484 16.8901 65.4103 16.8539 65.7481 16.6971C66.3755 16.4196 66.484 15.6837 65.9411 15.2494C65.7602 15.1046 65.5551 14.984 65.3379 14.8995C64.783 14.6582 64.2039 14.4652 63.6851 14.1515C62.8406 13.6448 62.2977 12.9451 62.358 11.9075C62.4304 10.7373 63.0939 10.0134 64.1556 9.62737C64.602 9.47054 64.602 9.47054 64.602 9.01209C64.602 8.85525 64.602 8.69842 64.602 8.54158C64.6141 8.19171 64.6744 8.13139 65.0122 8.11932C65.1208 8.11932 65.2293 8.11932 65.3379 8.11932C66.0738 8.11932 66.0738 8.11932 66.0738 8.85525C66.0738 9.37402 66.0738 9.37402 66.5926 9.45847C66.9907 9.51879 67.3768 9.63944 67.7387 9.79627C67.9438 9.88072 68.0162 10.0255 67.9559 10.2427C67.8594 10.5563 67.7749 10.8821 67.6784 11.1957C67.5819 11.4974 67.4854 11.5335 67.1958 11.4008C66.6167 11.1234 66.0135 11.0027 65.3741 11.0389C65.2052 11.051 65.0484 11.0751 64.8915 11.1354C64.3366 11.3767 64.2521 11.9799 64.7226 12.3539C64.9639 12.547 65.2293 12.6797 65.5068 12.8003C65.9894 13.0054 66.484 13.1984 66.9425 13.4518C68.4385 14.2963 68.8366 16.1421 67.7991 17.4089Z" fill="#FF872C"/>
<path d="M52.8272 16.8298C54.1398 16.8298 55.2038 15.7657 55.2038 14.4531C55.2038 13.1405 54.1398 12.0764 52.8272 12.0764C51.5145 12.0764 50.4505 13.1405 50.4505 14.4531C50.4505 15.7657 51.5145 16.8298 52.8272 16.8298Z" fill="#FF872C"/>
<path d="M77.8366 16.8298C79.1492 16.8298 80.2133 15.7657 80.2133 14.4531C80.2133 13.1405 79.1492 12.0764 77.8366 12.0764C76.524 12.0764 75.46 13.1405 75.46 14.4531C75.46 15.7657 76.524 16.8298 77.8366 16.8298Z" fill="#FF872C"/>
<path d="M83.7844 0H46.3486C44.1891 0 42.4277 1.7614 42.4277 3.92093V24.1047C42.4277 26.2642 44.1891 28.0256 46.3486 28.0256H83.7723C85.9318 28.0256 87.6932 26.2642 87.6932 24.1047V3.92093C87.7053 1.7614 85.9439 0 83.7844 0ZM84.3514 19.8701C84.0377 19.7856 83.712 19.7494 83.3742 19.7494C81.1785 19.7494 79.405 21.5229 79.405 23.7186C79.405 24.0564 79.4533 24.3821 79.5256 24.6837H50.3781C50.4263 24.4425 50.4505 24.2012 50.4505 23.9478C50.4505 21.7521 48.677 19.9786 46.4813 19.9786C46.24 19.9786 46.0108 20.0028 45.7816 20.039V7.98663C46.0108 8.02282 46.24 8.04695 46.4813 8.04695C48.677 8.04695 50.4505 6.27348 50.4505 4.07776C50.4505 3.82441 50.4263 3.58312 50.3781 3.34184H79.4291C79.405 3.49867 79.3929 3.66757 79.3929 3.83648C79.3929 6.03219 81.1664 7.80566 83.3621 7.80566C83.6999 7.80566 84.0257 7.7574 84.3393 7.68502V19.8701H84.3514V19.8701Z" fill="#FF872C"/>
<path d="M76.4734 31.488H40.8713C39.8821 31.488 39.0738 30.6918 39.0738 29.6904V11.3888V10.1461V6.85255C37.1796 7.11797 35.7319 8.74666 35.7319 10.7132V30.9451C35.7319 33.1047 37.4813 34.8419 39.6287 34.8419H77.1007C79.0672 34.8419 80.6838 33.3821 80.9613 31.488H77.6557H76.4734Z" fill="#FF872C"/>
<path d="M69.7414 38.3165H34.1394C33.1501 38.3165 32.3418 37.5202 32.3418 36.5189V18.2172V16.9746V13.681C30.4477 13.9464 29 15.5751 29 17.5416V37.7736C29 39.9331 30.7493 41.6704 32.8968 41.6704H70.3688C72.3353 41.6704 73.9519 40.2106 74.2294 38.3165H70.9238H69.7414Z" fill="#FF872C"/>
</svg>
