<svg width="238" height="87" viewBox="0 0 238 87" fill="none" xmlns="http://www.w3.org/2000/svg">
<path d="M120.326 5.4169C115.585 5.4169 111.736 9.26544 111.736 14.0067C111.736 18.748 115.585 22.5966 120.326 22.5966C125.067 22.5966 128.916 18.748 128.916 14.0067C128.928 9.26544 125.079 5.4169 120.326 5.4169ZM122.799 17.4089C122.425 17.8673 121.93 18.169 121.363 18.3258C121.11 18.3982 121.001 18.5188 121.014 18.7842C121.026 19.0376 121.014 19.2909 121.014 19.5443C121.014 19.7735 120.893 19.8942 120.676 19.8942C120.398 19.9062 120.133 19.9062 119.855 19.8942C119.614 19.8942 119.505 19.7494 119.505 19.5202C119.505 19.3392 119.505 19.1462 119.505 18.9652C119.505 18.555 119.493 18.543 119.095 18.4826C118.589 18.3982 118.094 18.2896 117.635 18.0604C117.274 17.8794 117.237 17.795 117.346 17.4089C117.418 17.1314 117.503 16.8419 117.587 16.5644C117.684 16.2387 117.78 16.2025 118.07 16.3593C118.577 16.6247 119.119 16.7695 119.686 16.8419C120.048 16.8901 120.41 16.8539 120.748 16.6971C121.375 16.4196 121.484 15.6837 120.941 15.2494C120.76 15.1046 120.555 14.984 120.338 14.8995C119.783 14.6582 119.204 14.4652 118.685 14.1515C117.841 13.6448 117.298 12.9451 117.358 11.9075C117.43 10.7373 118.094 10.0134 119.156 9.62737C119.602 9.47054 119.602 9.47054 119.602 9.01209C119.602 8.85525 119.602 8.69842 119.602 8.54158C119.614 8.19171 119.674 8.13139 120.012 8.11932C120.121 8.11932 120.229 8.11932 120.338 8.11932C121.074 8.11932 121.074 8.11932 121.074 8.85525C121.074 9.37402 121.074 9.37402 121.593 9.45847C121.991 9.51879 122.377 9.63944 122.739 9.79627C122.944 9.88072 123.016 10.0255 122.956 10.2427C122.859 10.5563 122.775 10.8821 122.678 11.1957C122.582 11.4974 122.485 11.5335 122.196 11.4008C121.617 11.1234 121.014 11.0027 120.374 11.0389C120.205 11.051 120.048 11.0751 119.892 11.1354C119.337 11.3767 119.252 11.9799 119.723 12.3539C119.964 12.547 120.229 12.6797 120.507 12.8003C120.989 13.0054 121.484 13.1984 121.942 13.4518C123.438 14.2963 123.837 16.1421 122.799 17.4089Z" fill="#FF872C"/>
<path d="M107.827 16.8298C109.14 16.8298 110.204 15.7657 110.204 14.4531C110.204 13.1405 109.14 12.0764 107.827 12.0764C106.515 12.0764 105.45 13.1405 105.45 14.4531C105.45 15.7657 106.515 16.8298 107.827 16.8298Z" fill="#FF872C"/>
<path d="M132.837 16.8298C134.149 16.8298 135.213 15.7657 135.213 14.4531C135.213 13.1405 134.149 12.0764 132.837 12.0764C131.524 12.0764 130.46 13.1405 130.46 14.4531C130.46 15.7657 131.524 16.8298 132.837 16.8298Z" fill="#FF872C"/>
<path d="M138.784 0H101.349C99.1891 0 97.4277 1.7614 97.4277 3.92093V24.1047C97.4277 26.2642 99.1891 28.0256 101.349 28.0256H138.772C140.932 28.0256 142.693 26.2642 142.693 24.1047V3.92093C142.705 1.7614 140.944 0 138.784 0ZM139.351 19.8701C139.038 19.7856 138.712 19.7494 138.374 19.7494C136.178 19.7494 134.405 21.5229 134.405 23.7186C134.405 24.0564 134.453 24.3821 134.526 24.6837H105.378C105.426 24.4425 105.45 24.2012 105.45 23.9478C105.45 21.7521 103.677 19.9786 101.481 19.9786C101.24 19.9786 101.011 20.0028 100.782 20.039V7.98663C101.011 8.02282 101.24 8.04695 101.481 8.04695C103.677 8.04695 105.45 6.27348 105.45 4.07776C105.45 3.82441 105.426 3.58312 105.378 3.34184H134.429C134.405 3.49867 134.393 3.66757 134.393 3.83648C134.393 6.0322 136.166 7.80566 138.362 7.80566C138.7 7.80566 139.026 7.7574 139.339 7.68502V19.8701H139.351Z" fill="#FF872C"/>
<path d="M131.473 31.488H95.8713C94.8821 31.488 94.0738 30.6918 94.0738 29.6904V11.3888V10.1461V6.85255C92.1796 7.11797 90.7319 8.74666 90.7319 10.7132V30.9451C90.7319 33.1047 92.4813 34.8419 94.6287 34.8419H132.101C134.067 34.8419 135.684 33.3821 135.961 31.488H132.656H131.473Z" fill="#FF872C"/>
<path d="M124.741 38.3165H89.1394C88.1501 38.3165 87.3418 37.5202 87.3418 36.5189V18.2172V16.9746V13.681C85.4477 13.9464 84 15.5751 84 17.5416V37.7736C84 39.9331 85.7493 41.6704 87.8968 41.6704H125.369C127.335 41.6704 128.952 40.2106 129.229 38.3165H125.924H124.741Z" fill="#FF872C"/>
<path d="M55.2058 53.32V55.552H48.1258V60.472H53.6458V62.704H48.1258V70H45.3898V53.32H55.2058ZM59.1334 55.024C58.6374 55.024 58.2214 54.856 57.8854 54.52C57.5494 54.184 57.3814 53.768 57.3814 53.272C57.3814 52.776 57.5494 52.36 57.8854 52.024C58.2214 51.688 58.6374 51.52 59.1334 51.52C59.6134 51.52 60.0214 51.688 60.3574 52.024C60.6934 52.36 60.8614 52.776 60.8614 53.272C60.8614 53.768 60.6934 54.184 60.3574 54.52C60.0214 54.856 59.6134 55.024 59.1334 55.024ZM60.4774 56.776V70H57.7414V56.776H60.4774ZM70.7415 56.56C71.7815 56.56 72.7095 56.776 73.5255 57.208C74.3575 57.64 75.0055 58.28 75.4695 59.128C75.9335 59.976 76.1655 61 76.1655 62.2V70H73.4535V62.608C73.4535 61.424 73.1575 60.52 72.5655 59.896C71.9735 59.256 71.1655 58.936 70.1415 58.936C69.1175 58.936 68.3015 59.256 67.6935 59.896C67.1015 60.52 66.8055 61.424 66.8055 62.608V70H64.0695V56.776H66.8055V58.288C67.2535 57.744 67.8215 57.32 68.5095 57.016C69.2135 56.712 69.9575 56.56 70.7415 56.56ZM78.7435 63.328C78.7435 62 79.0155 60.824 79.5595 59.8C80.1195 58.776 80.8715 57.984 81.8155 57.424C82.7755 56.848 83.8315 56.56 84.9835 56.56C86.0235 56.56 86.9275 56.768 87.6955 57.184C88.4795 57.584 89.1035 58.088 89.5675 58.696V56.776H92.3275V70H89.5675V68.032C89.1035 68.656 88.4715 69.176 87.6715 69.592C86.8715 70.008 85.9595 70.216 84.9355 70.216C83.7995 70.216 82.7595 69.928 81.8155 69.352C80.8715 68.76 80.1195 67.944 79.5595 66.904C79.0155 65.848 78.7435 64.656 78.7435 63.328ZM89.5675 63.376C89.5675 62.464 89.3755 61.672 88.9915 61C88.6235 60.328 88.1355 59.816 87.5275 59.464C86.9195 59.112 86.2635 58.936 85.5595 58.936C84.8555 58.936 84.1995 59.112 83.5915 59.464C82.9835 59.8 82.4875 60.304 82.1035 60.976C81.7355 61.632 81.5515 62.416 81.5515 63.328C81.5515 64.24 81.7355 65.04 82.1035 65.728C82.4875 66.416 82.9835 66.944 83.5915 67.312C84.2155 67.664 84.8715 67.84 85.5595 67.84C86.2635 67.84 86.9195 67.664 87.5275 67.312C88.1355 66.96 88.6235 66.448 88.9915 65.776C89.3755 65.088 89.5675 64.288 89.5675 63.376ZM102.593 56.56C103.633 56.56 104.561 56.776 105.377 57.208C106.209 57.64 106.857 58.28 107.321 59.128C107.785 59.976 108.017 61 108.017 62.2V70H105.305V62.608C105.305 61.424 105.009 60.52 104.417 59.896C103.825 59.256 103.017 58.936 101.993 58.936C100.969 58.936 100.153 59.256 99.5451 59.896C98.9531 60.52 98.6571 61.424 98.6571 62.608V70H95.9211V56.776H98.6571V58.288C99.1051 57.744 99.6731 57.32 100.361 57.016C101.065 56.712 101.809 56.56 102.593 56.56ZM110.595 63.376C110.595 62.016 110.867 60.824 111.411 59.8C111.971 58.76 112.739 57.96 113.715 57.4C114.691 56.84 115.811 56.56 117.075 56.56C118.675 56.56 119.995 56.944 121.035 57.712C122.091 58.464 122.803 59.544 123.171 60.952H120.219C119.979 60.296 119.595 59.784 119.067 59.416C118.539 59.048 117.875 58.864 117.075 58.864C115.955 58.864 115.059 59.264 114.387 60.064C113.731 60.848 113.403 61.952 113.403 63.376C113.403 64.8 113.731 65.912 114.387 66.712C115.059 67.512 115.955 67.912 117.075 67.912C118.659 67.912 119.707 67.216 120.219 65.824H123.171C122.787 67.168 122.067 68.24 121.011 69.04C119.955 69.824 118.643 70.216 117.075 70.216C115.811 70.216 114.691 69.936 113.715 69.376C112.739 68.8 111.971 68 111.411 66.976C110.867 65.936 110.595 64.736 110.595 63.376ZM138.018 63.064C138.018 63.56 137.986 64.008 137.922 64.408H127.818C127.898 65.464 128.29 66.312 128.994 66.952C129.698 67.592 130.562 67.912 131.586 67.912C133.058 67.912 134.098 67.296 134.706 66.064H137.658C137.258 67.28 136.53 68.28 135.474 69.064C134.434 69.832 133.138 70.216 131.586 70.216C130.322 70.216 129.186 69.936 128.178 69.376C127.186 68.8 126.402 68 125.826 66.976C125.266 65.936 124.986 64.736 124.986 63.376C124.986 62.016 125.258 60.824 125.802 59.8C126.362 58.76 127.138 57.96 128.13 57.4C129.138 56.84 130.29 56.56 131.586 56.56C132.834 56.56 133.946 56.832 134.922 57.376C135.898 57.92 136.658 58.688 137.202 59.68C137.746 60.656 138.018 61.784 138.018 63.064ZM135.162 62.2C135.146 61.192 134.786 60.384 134.082 59.776C133.378 59.168 132.506 58.864 131.466 58.864C130.522 58.864 129.714 59.168 129.042 59.776C128.37 60.368 127.97 61.176 127.842 62.2H135.162ZM157.001 66.592H150.017L148.817 70H145.961L151.937 53.296H155.105L161.081 70H158.201L157.001 66.592ZM156.233 64.36L153.521 56.608L150.785 64.36H156.233ZM166.415 58.72C166.879 58.112 167.511 57.6 168.311 57.184C169.111 56.768 170.015 56.56 171.023 56.56C172.175 56.56 173.223 56.848 174.167 57.424C175.127 57.984 175.879 58.776 176.423 59.8C176.967 60.824 177.239 62 177.239 63.328C177.239 64.656 176.967 65.848 176.423 66.904C175.879 67.944 175.127 68.76 174.167 69.352C173.223 69.928 172.175 70.216 171.023 70.216C170.015 70.216 169.119 70.016 168.335 69.616C167.551 69.2 166.911 68.688 166.415 68.08V76.288H163.679V56.776H166.415V58.72ZM174.455 63.328C174.455 62.416 174.263 61.632 173.879 60.976C173.511 60.304 173.015 59.8 172.391 59.464C171.783 59.112 171.127 58.936 170.423 58.936C169.735 58.936 169.079 59.112 168.455 59.464C167.847 59.816 167.351 60.328 166.967 61C166.599 61.672 166.415 62.464 166.415 63.376C166.415 64.288 166.599 65.088 166.967 65.776C167.351 66.448 167.847 66.96 168.455 67.312C169.079 67.664 169.735 67.84 170.423 67.84C171.127 67.84 171.783 67.664 172.391 67.312C173.015 66.944 173.511 66.416 173.879 65.728C174.263 65.04 174.455 64.24 174.455 63.328ZM182.681 58.72C183.145 58.112 183.777 57.6 184.577 57.184C185.377 56.768 186.281 56.56 187.289 56.56C188.441 56.56 189.489 56.848 190.433 57.424C191.393 57.984 192.145 58.776 192.689 59.8C193.233 60.824 193.505 62 193.505 63.328C193.505 64.656 193.233 65.848 192.689 66.904C192.145 67.944 191.393 68.76 190.433 69.352C189.489 69.928 188.441 70.216 187.289 70.216C186.281 70.216 185.385 70.016 184.601 69.616C183.817 69.2 183.177 68.688 182.681 68.08V76.288H179.945V56.776H182.681V58.72ZM190.721 63.328C190.721 62.416 190.529 61.632 190.145 60.976C189.777 60.304 189.281 59.8 188.657 59.464C188.049 59.112 187.393 58.936 186.689 58.936C186.001 58.936 185.345 59.112 184.721 59.464C184.113 59.816 183.617 60.328 183.233 61C182.865 61.672 182.681 62.464 182.681 63.376C182.681 64.288 182.865 65.088 183.233 65.776C183.617 66.448 184.113 66.96 184.721 67.312C185.345 67.664 186.001 67.84 186.689 67.84C187.393 67.84 188.049 67.664 188.657 67.312C189.281 66.944 189.777 66.416 190.145 65.728C190.529 65.04 190.721 64.24 190.721 63.328Z" fill="white"/>
</svg>
